<mxfile host="app.diagrams.net" modified="2024-02-19T04:07:54.761Z" agent="Mozilla/5.0 (X11; Linux x86_64) AppleWebKit/537.36 (KHTML, like Gecko) Chrome/119.0.0.0 Safari/537.36" etag="DpaoewMZxk45diPMUyKC" version="23.1.5" type="github">
  <diagram name="Page-1" id="QC_5T8T285snjpWexaHa">
    <mxGraphModel dx="1172" dy="1001" grid="0" gridSize="10" guides="1" tooltips="1" connect="1" arrows="1" fold="1" page="0" pageScale="1" pageWidth="850" pageHeight="1100" math="0" shadow="0">
      <root>
        <mxCell id="0" />
        <mxCell id="1" parent="0" />
        <mxCell id="_99t5JEwO3ASwBra3zp3-1" value="" style="rounded=0;whiteSpace=wrap;html=1;" vertex="1" parent="1">
          <mxGeometry x="24.5" y="-51" width="335" height="507" as="geometry" />
        </mxCell>
        <mxCell id="_99t5JEwO3ASwBra3zp3-3" value="" style="ellipse;whiteSpace=wrap;html=1;" vertex="1" parent="1">
          <mxGeometry x="120" width="140" height="80" as="geometry" />
        </mxCell>
        <mxCell id="_99t5JEwO3ASwBra3zp3-4" value="" style="ellipse;whiteSpace=wrap;html=1;" vertex="1" parent="1">
          <mxGeometry x="120" y="109" width="140" height="80" as="geometry" />
        </mxCell>
        <mxCell id="_99t5JEwO3ASwBra3zp3-5" value="" style="ellipse;whiteSpace=wrap;html=1;" vertex="1" parent="1">
          <mxGeometry x="120" y="229" width="140" height="80" as="geometry" />
        </mxCell>
        <mxCell id="_99t5JEwO3ASwBra3zp3-6" value="" style="ellipse;whiteSpace=wrap;html=1;" vertex="1" parent="1">
          <mxGeometry x="120" y="338" width="140" height="80" as="geometry" />
        </mxCell>
        <mxCell id="_99t5JEwO3ASwBra3zp3-23" style="edgeStyle=none;curved=1;rounded=0;orthogonalLoop=1;jettySize=auto;html=1;exitX=1;exitY=0.3333333333333333;exitDx=0;exitDy=0;exitPerimeter=0;fontSize=12;startSize=8;endSize=8;" edge="1" parent="1" source="_99t5JEwO3ASwBra3zp3-7">
          <mxGeometry relative="1" as="geometry">
            <mxPoint x="67" y="171" as="targetPoint" />
          </mxGeometry>
        </mxCell>
        <mxCell id="_99t5JEwO3ASwBra3zp3-7" value="User" style="shape=umlActor;verticalLabelPosition=bottom;verticalAlign=top;html=1;outlineConnect=0;" vertex="1" parent="1">
          <mxGeometry x="-157" y="129" width="54" height="127" as="geometry" />
        </mxCell>
        <mxCell id="_99t5JEwO3ASwBra3zp3-24" style="edgeStyle=none;curved=1;rounded=0;orthogonalLoop=1;jettySize=auto;html=1;exitX=0;exitY=0.3333333333333333;exitDx=0;exitDy=0;exitPerimeter=0;fontSize=12;startSize=8;endSize=8;" edge="1" parent="1" source="_99t5JEwO3ASwBra3zp3-9">
          <mxGeometry relative="1" as="geometry">
            <mxPoint x="320" y="180" as="targetPoint" />
          </mxGeometry>
        </mxCell>
        <mxCell id="_99t5JEwO3ASwBra3zp3-9" value="Pustakawan" style="shape=umlActor;verticalLabelPosition=bottom;verticalAlign=top;html=1;outlineConnect=0;" vertex="1" parent="1">
          <mxGeometry x="462" y="138" width="54" height="127" as="geometry" />
        </mxCell>
        <mxCell id="_99t5JEwO3ASwBra3zp3-11" value="" style="endArrow=none;html=1;rounded=0;fontSize=12;startSize=8;endSize=8;" edge="1" parent="1">
          <mxGeometry width="50" height="50" relative="1" as="geometry">
            <mxPoint x="69" y="32" as="sourcePoint" />
            <mxPoint x="69" y="380" as="targetPoint" />
            <Array as="points" />
          </mxGeometry>
        </mxCell>
        <mxCell id="_99t5JEwO3ASwBra3zp3-12" value="" style="endArrow=none;html=1;rounded=0;fontSize=12;startSize=8;endSize=8;" edge="1" parent="1">
          <mxGeometry width="50" height="50" relative="1" as="geometry">
            <mxPoint x="316" y="34" as="sourcePoint" />
            <mxPoint x="316" y="380" as="targetPoint" />
            <Array as="points" />
          </mxGeometry>
        </mxCell>
        <mxCell id="_99t5JEwO3ASwBra3zp3-13" value="" style="endArrow=none;html=1;rounded=0;fontSize=12;startSize=8;endSize=8;entryX=0.014;entryY=0.413;entryDx=0;entryDy=0;entryPerimeter=0;" edge="1" parent="1" target="_99t5JEwO3ASwBra3zp3-3">
          <mxGeometry width="50" height="50" relative="1" as="geometry">
            <mxPoint x="69" y="33" as="sourcePoint" />
            <mxPoint x="117" y="-4" as="targetPoint" />
          </mxGeometry>
        </mxCell>
        <mxCell id="_99t5JEwO3ASwBra3zp3-14" value="" style="endArrow=none;html=1;rounded=0;fontSize=12;startSize=8;endSize=8;entryX=0.014;entryY=0.413;entryDx=0;entryDy=0;entryPerimeter=0;" edge="1" parent="1">
          <mxGeometry width="50" height="50" relative="1" as="geometry">
            <mxPoint x="260" y="35" as="sourcePoint" />
            <mxPoint x="316" y="35" as="targetPoint" />
          </mxGeometry>
        </mxCell>
        <mxCell id="_99t5JEwO3ASwBra3zp3-15" value="" style="endArrow=none;html=1;rounded=0;fontSize=12;startSize=8;endSize=8;" edge="1" parent="1">
          <mxGeometry width="50" height="50" relative="1" as="geometry">
            <mxPoint x="70" y="152" as="sourcePoint" />
            <mxPoint x="120" y="152" as="targetPoint" />
          </mxGeometry>
        </mxCell>
        <mxCell id="_99t5JEwO3ASwBra3zp3-17" value="" style="endArrow=none;html=1;rounded=0;fontSize=12;startSize=8;endSize=8;entryX=0.014;entryY=0.413;entryDx=0;entryDy=0;entryPerimeter=0;" edge="1" parent="1">
          <mxGeometry width="50" height="50" relative="1" as="geometry">
            <mxPoint x="261" y="153" as="sourcePoint" />
            <mxPoint x="317" y="153" as="targetPoint" />
          </mxGeometry>
        </mxCell>
        <mxCell id="_99t5JEwO3ASwBra3zp3-18" value="" style="endArrow=none;html=1;rounded=0;fontSize=12;startSize=8;endSize=8;" edge="1" parent="1">
          <mxGeometry width="50" height="50" relative="1" as="geometry">
            <mxPoint x="70" y="269" as="sourcePoint" />
            <mxPoint x="120" y="269" as="targetPoint" />
          </mxGeometry>
        </mxCell>
        <mxCell id="_99t5JEwO3ASwBra3zp3-19" value="" style="endArrow=none;html=1;rounded=0;fontSize=12;startSize=8;endSize=8;entryX=0.014;entryY=0.413;entryDx=0;entryDy=0;entryPerimeter=0;" edge="1" parent="1">
          <mxGeometry width="50" height="50" relative="1" as="geometry">
            <mxPoint x="261" y="270" as="sourcePoint" />
            <mxPoint x="317" y="270" as="targetPoint" />
          </mxGeometry>
        </mxCell>
        <mxCell id="_99t5JEwO3ASwBra3zp3-20" value="" style="endArrow=none;html=1;rounded=0;fontSize=12;startSize=8;endSize=8;" edge="1" parent="1">
          <mxGeometry width="50" height="50" relative="1" as="geometry">
            <mxPoint x="70" y="379" as="sourcePoint" />
            <mxPoint x="120" y="379" as="targetPoint" />
          </mxGeometry>
        </mxCell>
        <mxCell id="_99t5JEwO3ASwBra3zp3-22" value="" style="endArrow=none;html=1;rounded=0;fontSize=12;startSize=8;endSize=8;entryX=0.014;entryY=0.413;entryDx=0;entryDy=0;entryPerimeter=0;" edge="1" parent="1">
          <mxGeometry width="50" height="50" relative="1" as="geometry">
            <mxPoint x="260" y="382" as="sourcePoint" />
            <mxPoint x="316" y="382" as="targetPoint" />
          </mxGeometry>
        </mxCell>
        <mxCell id="_99t5JEwO3ASwBra3zp3-25" value="MENGISI FORM" style="text;html=1;align=center;verticalAlign=middle;whiteSpace=wrap;rounded=0;fontSize=16;" vertex="1" parent="1">
          <mxGeometry x="126" y="25" width="124" height="30" as="geometry" />
        </mxCell>
        <mxCell id="_99t5JEwO3ASwBra3zp3-26" value="RIWAYAT PENGUNJUNG" style="text;html=1;align=center;verticalAlign=middle;whiteSpace=wrap;rounded=0;fontSize=16;" vertex="1" parent="1">
          <mxGeometry x="146.5" y="134" width="87" height="30" as="geometry" />
        </mxCell>
        <mxCell id="_99t5JEwO3ASwBra3zp3-27" value="CARI BUKU" style="text;html=1;align=center;verticalAlign=middle;whiteSpace=wrap;rounded=0;fontSize=16;" vertex="1" parent="1">
          <mxGeometry x="138.5" y="254" width="99" height="30" as="geometry" />
        </mxCell>
        <mxCell id="_99t5JEwO3ASwBra3zp3-28" value="PENCARIAN RAK BUKU" style="text;html=1;align=center;verticalAlign=middle;whiteSpace=wrap;rounded=0;fontSize=16;" vertex="1" parent="1">
          <mxGeometry x="132" y="366" width="116" height="30" as="geometry" />
        </mxCell>
        <mxCell id="_99t5JEwO3ASwBra3zp3-29" value="Perpustakaan Digital" style="text;html=1;align=center;verticalAlign=middle;whiteSpace=wrap;rounded=0;fontSize=16;" vertex="1" parent="1">
          <mxGeometry x="86" y="-36" width="202" height="30" as="geometry" />
        </mxCell>
      </root>
    </mxGraphModel>
  </diagram>
</mxfile>
